<svg xmlns="http://www.w3.org/2000/svg" style="background-color: rgb(255, 255, 255);" width="510px" height="294px" version="1.1"><defs/><rect x="222" y="2" width="100" height="50" shape-rendering="crispEdges" fill="#ffffff" stroke="#000000"/><g text-anchor="middle" font-size="12px" font-family="Helvetica" fill="#000000"><text x="272" y="21.5">Dispatcher </text><text x="272" y="37.1">(node.js)</text></g><path d="M 152 172 L 392 172" shape-rendering="crispEdges" fill="none" stroke="#000000" stroke-miterlimit="10" stroke-dasharray="3 3" transform="rotate(270,272,172)"/><rect x="408" y="2" width="100" height="50" shape-rendering="crispEdges" fill="#ffffff" stroke="#000000"/><g text-anchor="middle" font-size="12px" font-family="Helvetica" fill="#000000"><text x="458" y="21.5">MD Render </text><text x="458" y="37.1">(Ruby)</text></g><path d="M 338 172 L 578 172" shape-rendering="crispEdges" fill="none" stroke="#000000" stroke-miterlimit="10" stroke-dasharray="3 3" transform="rotate(270,458,172)"/><rect x="2" y="2" width="100" height="50" shape-rendering="crispEdges" fill="#ffffff" stroke="#000000"/><g text-anchor="middle" font-size="12px" font-family="Helvetica" fill="#000000"><text x="52" y="30">HTTP Client</text></g><path d="M -68 172 L 172 172" shape-rendering="crispEdges" fill="none" stroke="#000000" stroke-miterlimit="10" stroke-dasharray="3 3" transform="rotate(270,52,172)"/><rect x="262" y="72" width="20" height="200" shape-rendering="crispEdges" fill="#ffffff" stroke="#000000"/><path d="M 260.88 92 L 253.88 95.5 L 253.88 88.5 Z" fill="#000000" stroke="#000000" stroke-miterlimit="10"/><path d="M 72 92 L 253.88 92" shape-rendering="crispEdges" fill="none" stroke="#000000" stroke-miterlimit="10"/><rect x="112.5" y="60" width="109" height="27" shape-rendering="crispEdges" fill="#ffffff"/><g text-anchor="middle" font-size="11px" font-family="Helvetica" fill="#000000"><text x="167" y="71">HTTP POST</text><text x="167" y="85.3"> /md src=*hello, world*</text></g><path d="M 72.17 247.63 L 63.12 252.01 L 72.06 256.63" fill="none" stroke="#000000" stroke-miterlimit="10"/><path d="M 262 254.5 L 64.24 252.03" fill="none" stroke="#000000" stroke-miterlimit="10" stroke-dasharray="3 3"/><rect x="82" y="221.25" width="160" height="27" shape-rendering="crispEdges" fill="#ffffff"/><g text-anchor="middle" font-size="11px" font-family="Helvetica" fill="#000000"><text x="162" y="232.25">HTTP RESP: </text><text x="162" y="246.55">&lt;p&gt;&lt;em&gt;hello world&lt;/em&gt;&lt;/p&gt;\n</text></g><rect x="452" y="116.5" width="20" height="135.5" shape-rendering="crispEdges" fill="#ffffff" stroke="#000000"/><path d="M 298.19 225.16 L 289.12 229.52 L 298.04 234.16" fill="none" stroke="#000000" stroke-miterlimit="10"/><path d="M 442 232 L 290.24 229.54" fill="none" stroke="#000000" stroke-miterlimit="10" stroke-dasharray="3 3"/><rect x="317.5" y="212.75" width="95" height="14" shape-rendering="crispEdges" fill="#ffffff"/><g text-anchor="middle" font-size="11px" font-family="Helvetica" fill="#000000"><text x="365" y="224.13">ZeroMQ:Port 5556</text></g><path d="M 446.88 134.48 L 439.82 137.86 L 439.94 130.86 Z" fill="#000000" stroke="#000000" stroke-miterlimit="10"/><path d="M 302 132 L 439.88 134.36" fill="none" stroke="#000000" stroke-miterlimit="10"/><rect x="327.5" y="115.25" width="95" height="14" shape-rendering="crispEdges" fill="#ffffff"/><g text-anchor="middle" font-size="11px" font-family="Helvetica" fill="#000000"><text x="375" y="126.63">ZeroMQ:Port 5555</text></g></svg>